<?xml version="1.0" encoding="utf-8"?>
<svg viewBox="-1347.729 -17.132 3018.426 428.617" xmlns="http://www.w3.org/2000/svg">
  <g transform="matrix(10.019789, 0, 0, 10.019789, -1340.855631, -2.634245)">
    <g id="SvgjsG1028" featurekey="PG4fjM-0" transform="matrix(1,0,0,1,-5,-29.94921875)" fill="#ffcd3c">
      <g xmlns="http://www.w3.org/2000/svg">
        <g>
          <circle cx="14.469" cy="60.581" r="9.469"/>
          <circle cx="50" cy="60.581" r="9.469"/>
          <path d="M47.228,43.866l-5.473-2.819l-0.687,1.333l7,3.606c0.11,0.057,0.227,0.083,0.343,0.083c0.272,0,0.534-0.148,0.667-0.407    l3.605-7l-1.332-0.687l-2.729,5.297c-1.952-7.707-9.04-13.323-17.182-13.323c-9.771,0-17.721,7.903-17.721,17.618h1.5    c0-8.887,7.277-16.118,16.221-16.118C38.974,31.451,45.525,36.699,47.228,43.866z"/>
          <circle cx="85.531" cy="60.581" r="9.469"/>
          <path d="M82.759,43.866l-5.473-2.819L76.6,42.381l7,3.606c0.11,0.057,0.229,0.083,0.344,0.083c0.271,0,0.533-0.148,0.666-0.407    l3.606-7l-1.333-0.687l-2.729,5.297c-1.952-7.707-9.04-13.323-17.182-13.323c-3.925,0-7.642,1.248-10.748,3.609l0.904,1.194    c2.848-2.161,6.249-3.303,9.844-3.303C74.506,31.451,81.057,36.699,82.759,43.866z"/>
        </g>
      </g>
    </g>
    <g id="SvgjsG1029" featurekey="nameLeftFeature-0" transform="matrix(2.264373540878296,0,0,2.264373540878296,107.7002457002457,-12.311547911547912)" fill="#111111">
      <path d="M13.949 20.72881 c0.22034 0.18644 0.13559 0.42373 -0.016949 0.52542 l-1.322 0.81356 c-0.42373 0.27119 -0.91525 0.16933 -1.1525 -0.23729 l-1.2544 -2.0847 c-0.69475 0.23729 -1.4575 0.37271 -2.2541 0.37271 c-3.8305 0 -6.9322 -3.0507 -6.9322 -6.9151 c0 -3.8305 3.1017 -6.8814 6.9322 -6.8814 c3.7966 0 6.8983 3.0508 6.8983 6.8814 c0 2.1525 -0.9661 4.0678 -2.4746 5.3222 l0.64407 1.0846 c0.42373 0.66102 0.69492 0.89831 0.9322 1.1186 z M3.4405 13.2036 c0 1.7966 1.0847 3.3898 2.6102 4.1354 c-0.16949 -0.30508 -0.25424 -0.64407 -0.25424 -1.0169 c0 -1.1356 0.98305 -2.1186 2.3559 -2.1186 c0.91525 0 1.6441 0.35593 2.3729 1.339 c0.22034 0.30508 0.38983 0.57627 0.57627 0.88136 c0.83051 -0.83034 1.339 -1.9829 1.339 -3.2202 c0 -2.4576 -2.0508 -4.5422 -4.4915 -4.5422 s-4.5085 2.0846 -4.5085 4.5422 z M7.949 17.7795 c0.35593 0 0.67797 -0.033898 1.0169 -0.11848 l-0.20339 -0.3222 c-0.32203 -0.5422 -0.62729 -0.74559 -1.1186 -0.74559 c-0.45763 0 -0.77966 0.37288 -0.77966 0.79661 c0 0.084746 0.016949 0.18644 0.050847 0.27119 c0.33898 0.08458 0.67797 0.11848 1.0339 0.11848 z M23.559169491525424 20.11864 c3.7966 0 6.8983 -3.0507 6.8983 -6.9151 c0 -3.8305 -3.1017 -6.8814 -6.8983 -6.8814 c-3.8305 0 -6.9322 3.0508 -6.9322 6.8814 c0 3.8644 3.1017 6.9151 6.9322 6.9151 z M23.559169491525424 17.7798 c-2.4407 0 -4.5085 -2.1017 -4.5085 -4.5763 c0 -2.4576 2.0678 -4.5422 4.5085 -4.5422 s4.4915 2.0846 4.4915 4.5422 c0 2.4746 -2.0508 4.5763 -4.4915 4.5763 z M44.18657627118644 6.441000000000001 c0.16949 0 0.33915 0.15254 0.33915 0.32203 l0 12.915 c0 0.16949 -0.13559 0.32186 -0.32203 0.32186 l-0.55932 0 c-0.45763 0 -0.94915 -0.32203 -1.5593 -1 l-6.9322 -7.7456 l0 8.4068 c0 0.16949 -0.15254 0.32203 -0.33915 0.32203 l-1.7288 0.016784 c-0.18644 0 -0.33898 -0.15238 -0.33898 -0.33881 l0 -12.898 c0 -0.16949 0.15254 -0.32203 0.32203 -0.32203 l1 0 c0.18644 0 0.30508 0.067797 0.45763 0.25424 l7.5763 8.678 l0 -8.6102 c0 -0.16949 0.13559 -0.32203 0.32203 -0.32203 l1.7627 0 z" style="fill: rgb(255, 255, 255);"/>
    </g>
    <g id="SvgjsG1030" featurekey="nameRightFeature-0" transform="matrix(2.26969313621521,0,0,2.26969313621521,217.0247412643654,-12.424963298886558)" fill="#111111">
      <path d="M13.441 6.441000000000001 c0.11864 0 0.23763 0.11881 0.15287 0.30525 l-6.2544 13.153 c-0.050847 0.10153 -0.13559 0.16933 -0.25424 0.16933 l-0.13559 0 c-0.10169 0 -0.18644 -0.067797 -0.23729 -0.16933 l-6.2542 -13.169 c-0.084746 -0.16966 0.033898 -0.28831 0.15254 -0.28831 l1.1356 0 c0.13559 0 0.18644 0.10169 0.25424 0.27119 l5.0168 10.864 l5.0339 -10.864 c0.067797 -0.16949 0.11864 -0.27119 0.25424 -0.27119 l1.1356 0 z M25.08494915254237 19.77983 c0.067797 0.13559 0.034229 0.22017 -0.11831 0.22017 l-1.0339 0 c-0.11864 0 -0.18644 -0.050847 -0.23729 -0.15254 l-1.1864 -2.5254 l-8.1864 0 l-1.1864 2.5254 c-0.050847 0.10169 -0.11848 0.15254 -0.22034 0.15254 l-1.0678 0 c-0.11864 0 -0.18644 -0.08458 -0.11864 -0.22017 l6.3558 -13.271 c0.067797 -0.11864 0.11864 -0.15254 0.20322 -0.15254 l0.23745 0 c0.084746 0 0.15254 0.033898 0.20339 0.15254 z M14.898449152542373 16.1019 l7.0339 0 l-3.5254 -7.4576 z M36.18640677966101 6.441000000000001 c0.08458 0 0.15188 0.10169 0.084083 0.20339 l-5.4064 7.7458 l0 5.3729 c0 0.15254 -0.067797 0.23712 -0.20339 0.23712 l-0.67797 0 c-0.28814 0 -0.44068 -0.18644 -0.44068 -0.47441 l0 -5.1356 l-5.4068 -7.7458 c-0.050847 -0.10169 0 -0.20339 0.10186 -0.20339 l1.1864 0 c0.10169 0 0.15254 0.067797 0.20339 0.16949 l4.5763 6.4746 l4.5764 -6.4746 c0.067797 -0.10169 0.10169 -0.16949 0.20339 -0.16949 l1.2034 0 z" style="fill: rgb(255, 255, 255);"/>
    </g>
  </g>
</svg>